<svg xmlns="http://www.w3.org/2000/svg" width="24" height="24"><path d="M19 3H5a2 2 0 0 0-2 2v14a2 2 0 0 0 2 2h14a2 2 0 0 0 2-2V5a2 2 0 0 0-2-2zM7.738 17a1.262 1.262 0 0 1-1.262-1.262v-4.477A1.262 1.262 0 0 1 9 11.262v4.477C9 16.435 8.435 17 7.738 17zm-.044-8.283c-.771 0-1.286-.514-1.286-1.2s.514-1.2 1.371-1.2c.771 0 1.286.514 1.286 1.2s-.514 1.2-1.371 1.2zM16.779 17a1.221 1.221 0 0 1-1.221-1.221v-2.605c0-1.058-.651-1.174-.895-1.174s-1.058.035-1.058 1.174v2.605c0 .674-.547 1.221-1.221 1.221h-.081a1.221 1.221 0 0 1-1.221-1.221v-4.517a1.262 1.262 0 1 1 2.524 0S13.888 10 15.804 10c1.219 0 2.196.977 2.196 3.174v2.605c0 .674-.547 1.221-1.221 1.221z"/></svg>