<svg xmlns="http://www.w3.org/2000/svg" xml:space="preserve" width="48" height="48" viewBox="0 0 47.168 47.168"><path d="M47.168 36.918V6.699H0v30.219h19.252v1.945H9.188v1.605h28.179v-1.605h-9.846v-1.945h19.647zM3.45 32.469v-22.32h40.267v22.317H3.45v.003z"/><path d="M10.965 19.217h25.166v-6.166H10.965v6.166zm.5-5.666h24.166v5.166H11.465v-5.166zM10.941 25.764h7.739v-5.562h-7.739v5.562zm.5-5.063h6.739v4.562h-6.739v-4.562zM19.647 25.764h7.738v-5.562h-7.738v5.562zm.5-5.063h6.738v4.562h-6.738v-4.562zM36.152 20.201h-7.738v5.562h7.738v-5.562zm-.5 5.063h-6.738v-4.562h6.738v4.562zM10.941 27.029h6.976v.484h-6.976zM10.941 27.92h7.739v.484h-7.739zM10.941 28.842h6.304v.484h-6.304zM10.941 29.842h7.054v.484h-7.054zM10.488 30.781h4.522v.484h-4.522zM19.647 27.029h6.976v.484h-6.976zM19.647 27.92h7.739v.484h-7.739zM19.647 28.842h6.304v.484h-6.304zM19.647 29.842h7.054v.484h-7.054zM19.193 30.781h4.522v.484h-4.522zM28.49 26.99h6.976v.484H28.49zM28.49 27.881h7.738v.484H28.49zM28.49 28.803h6.304v.484H28.49zM28.49 29.803h7.054v.484H28.49zM28.037 30.742h4.521v.484h-4.521zM22.501 11.029H10.938v1.406h11.563v-1.406zm-.5.908H11.438v-.407h10.563v.407z"/></svg>